<?xml version="1.0" encoding="utf-8" standalone="no"?>
<!DOCTYPE svg PUBLIC "-//W3C//DTD SVG 1.1//EN"
  "http://www.w3.org/Graphics/SVG/1.1/DTD/svg11.dtd">
<svg xmlns:xlink="http://www.w3.org/1999/xlink" width="864pt" height="432pt" viewBox="0 0 864 432" xmlns="http://www.w3.org/2000/svg" version="1.1">
 <metadata>
  <rdf:RDF xmlns:dc="http://purl.org/dc/elements/1.1/" xmlns:cc="http://creativecommons.org/ns#" xmlns:rdf="http://www.w3.org/1999/02/22-rdf-syntax-ns#">
   <cc:Work>
    <dc:type rdf:resource="http://purl.org/dc/dcmitype/StillImage"/>
    <dc:date>2023-10-26T21:45:36.150811</dc:date>
    <dc:format>image/svg+xml</dc:format>
    <dc:creator>
     <cc:Agent>
      <dc:title>Matplotlib v3.6.3, https://matplotlib.org/</dc:title>
     </cc:Agent>
    </dc:creator>
   </cc:Work>
  </rdf:RDF>
 </metadata>
 <defs>
  <style type="text/css">*{stroke-linejoin: round; stroke-linecap: butt}</style>
 </defs>
 <g id="figure_1">
  <g id="patch_1">
   <path d="M 0 432 
L 864 432 
L 864 0 
L 0 0 
z
" style="fill: #ffffff"/>
  </g>
  <g id="axes_1">
   <g id="patch_2">
    <path d="M 108 384.48 
L 412.363636 384.48 
L 412.363636 51.84 
L 108 51.84 
z
" style="fill: #ffffff"/>
   </g>
   <g id="matplotlib.axis_1">
    <g id="xtick_1">
     <g id="line2d_1">
      <defs>
       <path id="m01f497a67c" d="M 0 0 
L 0 3.5 
" style="stroke: #000000; stroke-width: 0.8"/>
      </defs>
      <g>
       <use xlink:href="#m01f497a67c" x="118.0956" y="384.48" style="stroke: #000000; stroke-width: 0.8"/>
      </g>
     </g>
     <g id="text_1">
      <!-- 0 -->
      <g transform="translate(114.91435 399.078438) scale(0.1 -0.1)">
       <defs>
        <path id="DejaVuSans-30" d="M 2034 4250 
Q 1547 4250 1301 3770 
Q 1056 3291 1056 2328 
Q 1056 1369 1301 889 
Q 1547 409 2034 409 
Q 2525 409 2770 889 
Q 3016 1369 3016 2328 
Q 3016 3291 2770 3770 
Q 2525 4250 2034 4250 
z
M 2034 4750 
Q 2819 4750 3233 4129 
Q 3647 3509 3647 2328 
Q 3647 1150 3233 529 
Q 2819 -91 2034 -91 
Q 1250 -91 836 529 
Q 422 1150 422 2328 
Q 422 3509 836 4129 
Q 1250 4750 2034 4750 
z
" transform="scale(0.015625)"/>
       </defs>
       <use xlink:href="#DejaVuSans-30"/>
      </g>
     </g>
    </g>
    <g id="xtick_2">
     <g id="line2d_2">
      <g>
       <use xlink:href="#m01f497a67c" x="155.48671" y="384.48" style="stroke: #000000; stroke-width: 0.8"/>
      </g>
     </g>
     <g id="text_2">
      <!-- 10 -->
      <g transform="translate(149.12421 399.078438) scale(0.1 -0.1)">
       <defs>
        <path id="DejaVuSans-31" d="M 794 531 
L 1825 531 
L 1825 4091 
L 703 3866 
L 703 4441 
L 1819 4666 
L 2450 4666 
L 2450 531 
L 3481 531 
L 3481 0 
L 794 0 
L 794 531 
z
" transform="scale(0.015625)"/>
       </defs>
       <use xlink:href="#DejaVuSans-31"/>
       <use xlink:href="#DejaVuSans-30" x="63.623047"/>
      </g>
     </g>
    </g>
    <g id="xtick_3">
     <g id="line2d_3">
      <g>
       <use xlink:href="#m01f497a67c" x="192.87782" y="384.48" style="stroke: #000000; stroke-width: 0.8"/>
      </g>
     </g>
     <g id="text_3">
      <!-- 20 -->
      <g transform="translate(186.51532 399.078438) scale(0.1 -0.1)">
       <defs>
        <path id="DejaVuSans-32" d="M 1228 531 
L 3431 531 
L 3431 0 
L 469 0 
L 469 531 
Q 828 903 1448 1529 
Q 2069 2156 2228 2338 
Q 2531 2678 2651 2914 
Q 2772 3150 2772 3378 
Q 2772 3750 2511 3984 
Q 2250 4219 1831 4219 
Q 1534 4219 1204 4116 
Q 875 4013 500 3803 
L 500 4441 
Q 881 4594 1212 4672 
Q 1544 4750 1819 4750 
Q 2544 4750 2975 4387 
Q 3406 4025 3406 3419 
Q 3406 3131 3298 2873 
Q 3191 2616 2906 2266 
Q 2828 2175 2409 1742 
Q 1991 1309 1228 531 
z
" transform="scale(0.015625)"/>
       </defs>
       <use xlink:href="#DejaVuSans-32"/>
       <use xlink:href="#DejaVuSans-30" x="63.623047"/>
      </g>
     </g>
    </g>
    <g id="xtick_4">
     <g id="line2d_4">
      <g>
       <use xlink:href="#m01f497a67c" x="230.26893" y="384.48" style="stroke: #000000; stroke-width: 0.8"/>
      </g>
     </g>
     <g id="text_4">
      <!-- 30 -->
      <g transform="translate(223.90643 399.078438) scale(0.1 -0.1)">
       <defs>
        <path id="DejaVuSans-33" d="M 2597 2516 
Q 3050 2419 3304 2112 
Q 3559 1806 3559 1356 
Q 3559 666 3084 287 
Q 2609 -91 1734 -91 
Q 1441 -91 1130 -33 
Q 819 25 488 141 
L 488 750 
Q 750 597 1062 519 
Q 1375 441 1716 441 
Q 2309 441 2620 675 
Q 2931 909 2931 1356 
Q 2931 1769 2642 2001 
Q 2353 2234 1838 2234 
L 1294 2234 
L 1294 2753 
L 1863 2753 
Q 2328 2753 2575 2939 
Q 2822 3125 2822 3475 
Q 2822 3834 2567 4026 
Q 2313 4219 1838 4219 
Q 1578 4219 1281 4162 
Q 984 4106 628 3988 
L 628 4550 
Q 988 4650 1302 4700 
Q 1616 4750 1894 4750 
Q 2613 4750 3031 4423 
Q 3450 4097 3450 3541 
Q 3450 3153 3228 2886 
Q 3006 2619 2597 2516 
z
" transform="scale(0.015625)"/>
       </defs>
       <use xlink:href="#DejaVuSans-33"/>
       <use xlink:href="#DejaVuSans-30" x="63.623047"/>
      </g>
     </g>
    </g>
    <g id="xtick_5">
     <g id="line2d_5">
      <g>
       <use xlink:href="#m01f497a67c" x="267.66004" y="384.48" style="stroke: #000000; stroke-width: 0.8"/>
      </g>
     </g>
     <g id="text_5">
      <!-- 40 -->
      <g transform="translate(261.29754 399.078438) scale(0.1 -0.1)">
       <defs>
        <path id="DejaVuSans-34" d="M 2419 4116 
L 825 1625 
L 2419 1625 
L 2419 4116 
z
M 2253 4666 
L 3047 4666 
L 3047 1625 
L 3713 1625 
L 3713 1100 
L 3047 1100 
L 3047 0 
L 2419 0 
L 2419 1100 
L 313 1100 
L 313 1709 
L 2253 4666 
z
" transform="scale(0.015625)"/>
       </defs>
       <use xlink:href="#DejaVuSans-34"/>
       <use xlink:href="#DejaVuSans-30" x="63.623047"/>
      </g>
     </g>
    </g>
    <g id="xtick_6">
     <g id="line2d_6">
      <g>
       <use xlink:href="#m01f497a67c" x="305.05115" y="384.48" style="stroke: #000000; stroke-width: 0.8"/>
      </g>
     </g>
     <g id="text_6">
      <!-- 50 -->
      <g transform="translate(298.68865 399.078438) scale(0.1 -0.1)">
       <defs>
        <path id="DejaVuSans-35" d="M 691 4666 
L 3169 4666 
L 3169 4134 
L 1269 4134 
L 1269 2991 
Q 1406 3038 1543 3061 
Q 1681 3084 1819 3084 
Q 2600 3084 3056 2656 
Q 3513 2228 3513 1497 
Q 3513 744 3044 326 
Q 2575 -91 1722 -91 
Q 1428 -91 1123 -41 
Q 819 9 494 109 
L 494 744 
Q 775 591 1075 516 
Q 1375 441 1709 441 
Q 2250 441 2565 725 
Q 2881 1009 2881 1497 
Q 2881 1984 2565 2268 
Q 2250 2553 1709 2553 
Q 1456 2553 1204 2497 
Q 953 2441 691 2322 
L 691 4666 
z
" transform="scale(0.015625)"/>
       </defs>
       <use xlink:href="#DejaVuSans-35"/>
       <use xlink:href="#DejaVuSans-30" x="63.623047"/>
      </g>
     </g>
    </g>
    <g id="xtick_7">
     <g id="line2d_7">
      <g>
       <use xlink:href="#m01f497a67c" x="342.44226" y="384.48" style="stroke: #000000; stroke-width: 0.8"/>
      </g>
     </g>
     <g id="text_7">
      <!-- 60 -->
      <g transform="translate(336.07976 399.078438) scale(0.1 -0.1)">
       <defs>
        <path id="DejaVuSans-36" d="M 2113 2584 
Q 1688 2584 1439 2293 
Q 1191 2003 1191 1497 
Q 1191 994 1439 701 
Q 1688 409 2113 409 
Q 2538 409 2786 701 
Q 3034 994 3034 1497 
Q 3034 2003 2786 2293 
Q 2538 2584 2113 2584 
z
M 3366 4563 
L 3366 3988 
Q 3128 4100 2886 4159 
Q 2644 4219 2406 4219 
Q 1781 4219 1451 3797 
Q 1122 3375 1075 2522 
Q 1259 2794 1537 2939 
Q 1816 3084 2150 3084 
Q 2853 3084 3261 2657 
Q 3669 2231 3669 1497 
Q 3669 778 3244 343 
Q 2819 -91 2113 -91 
Q 1303 -91 875 529 
Q 447 1150 447 2328 
Q 447 3434 972 4092 
Q 1497 4750 2381 4750 
Q 2619 4750 2861 4703 
Q 3103 4656 3366 4563 
z
" transform="scale(0.015625)"/>
       </defs>
       <use xlink:href="#DejaVuSans-36"/>
       <use xlink:href="#DejaVuSans-30" x="63.623047"/>
      </g>
     </g>
    </g>
    <g id="xtick_8">
     <g id="line2d_8">
      <g>
       <use xlink:href="#m01f497a67c" x="379.833371" y="384.48" style="stroke: #000000; stroke-width: 0.8"/>
      </g>
     </g>
     <g id="text_8">
      <!-- 70 -->
      <g transform="translate(373.470871 399.078438) scale(0.1 -0.1)">
       <defs>
        <path id="DejaVuSans-37" d="M 525 4666 
L 3525 4666 
L 3525 4397 
L 1831 0 
L 1172 0 
L 2766 4134 
L 525 4134 
L 525 4666 
z
" transform="scale(0.015625)"/>
       </defs>
       <use xlink:href="#DejaVuSans-37"/>
       <use xlink:href="#DejaVuSans-30" x="63.623047"/>
      </g>
     </g>
    </g>
   </g>
   <g id="matplotlib.axis_2">
    <g id="ytick_1">
     <g id="line2d_9">
      <defs>
       <path id="me39d03a051" d="M 0 0 
L -3.5 0 
" style="stroke: #000000; stroke-width: 0.8"/>
      </defs>
      <g>
       <use xlink:href="#me39d03a051" x="108" y="378.087579" style="stroke: #000000; stroke-width: 0.8"/>
      </g>
     </g>
     <g id="text_9">
      <!-- 0 -->
      <g transform="translate(94.6375 381.886798) scale(0.1 -0.1)">
       <use xlink:href="#DejaVuSans-30"/>
      </g>
     </g>
    </g>
    <g id="ytick_2">
     <g id="line2d_10">
      <g>
       <use xlink:href="#me39d03a051" x="108" y="312.124286" style="stroke: #000000; stroke-width: 0.8"/>
      </g>
     </g>
     <g id="text_10">
      <!-- 5 -->
      <g transform="translate(94.6375 315.923505) scale(0.1 -0.1)">
       <use xlink:href="#DejaVuSans-35"/>
      </g>
     </g>
    </g>
    <g id="ytick_3">
     <g id="line2d_11">
      <g>
       <use xlink:href="#me39d03a051" x="108" y="246.160992" style="stroke: #000000; stroke-width: 0.8"/>
      </g>
     </g>
     <g id="text_11">
      <!-- 10 -->
      <g transform="translate(88.275 249.960211) scale(0.1 -0.1)">
       <use xlink:href="#DejaVuSans-31"/>
       <use xlink:href="#DejaVuSans-30" x="63.623047"/>
      </g>
     </g>
    </g>
    <g id="ytick_4">
     <g id="line2d_12">
      <g>
       <use xlink:href="#me39d03a051" x="108" y="180.197699" style="stroke: #000000; stroke-width: 0.8"/>
      </g>
     </g>
     <g id="text_12">
      <!-- 15 -->
      <g transform="translate(88.275 183.996917) scale(0.1 -0.1)">
       <use xlink:href="#DejaVuSans-31"/>
       <use xlink:href="#DejaVuSans-35" x="63.623047"/>
      </g>
     </g>
    </g>
    <g id="ytick_5">
     <g id="line2d_13">
      <g>
       <use xlink:href="#me39d03a051" x="108" y="114.234405" style="stroke: #000000; stroke-width: 0.8"/>
      </g>
     </g>
     <g id="text_13">
      <!-- 20 -->
      <g transform="translate(88.275 118.033624) scale(0.1 -0.1)">
       <use xlink:href="#DejaVuSans-32"/>
       <use xlink:href="#DejaVuSans-30" x="63.623047"/>
      </g>
     </g>
    </g>
   </g>
   <g id="line2d_14">
    <path d="M 121.834711 66.96 
L 125.573822 361.812259 
L 129.312933 362.554515 
L 133.052044 362.995683 
L 136.791155 363.286129 
L 140.530266 363.465732 
L 144.269377 363.745025 
L 148.008488 364.022441 
L 151.747599 364.676829 
L 155.48671 364.683824 
L 159.225821 364.937917 
L 162.964932 365.091071 
L 166.704043 365.111635 
L 170.443154 365.221074 
L 174.182265 365.340357 
L 177.921376 365.538439 
L 181.660487 365.78007 
L 185.399598 365.648922 
L 189.138709 365.862852 
L 192.87782 365.815143 
L 196.616931 366.14465 
L 200.356042 366.144307 
L 204.095153 366.240836 
L 207.834264 366.363994 
L 211.573375 366.419144 
L 215.312486 366.281667 
L 219.051597 366.430651 
L 222.790708 366.510204 
L 226.529819 366.540599 
L 230.26893 366.589141 
L 234.008041 366.762288 
L 237.747152 366.812641 
L 241.486263 366.921694 
L 245.225374 366.744976 
L 248.964485 366.856233 
L 252.703596 366.933963 
L 256.442707 367.145384 
L 260.181818 367.06612 
L 263.920929 367.26294 
L 267.66004 367.203017 
L 271.399151 367.25147 
L 275.138262 367.40686 
L 278.877373 367.423318 
L 282.616484 367.585084 
L 286.355595 367.660966 
L 290.094706 367.638143 
L 293.833817 367.618341 
L 297.572928 367.699048 
L 301.312039 367.679414 
L 305.05115 367.785543 
L 308.790261 367.944509 
L 312.529372 367.939424 
L 316.268483 368.080625 
L 320.007594 367.962651 
L 323.746705 368.06639 
L 327.485816 368.146833 
L 331.224927 368.348929 
L 334.964038 368.099849 
L 338.703149 368.239289 
L 342.44226 368.438405 
L 346.181371 368.453093 
L 349.920482 368.68609 
L 353.659593 368.654133 
L 357.398704 368.359753 
L 361.137816 368.71558 
L 364.876927 368.5711 
L 368.616038 368.795753 
L 372.355149 368.762745 
L 376.09426 368.926581 
L 379.833371 369.116316 
L 383.572482 369.143246 
L 387.311593 369.261791 
L 391.050704 369.009013 
L 394.789815 369.36 
L 398.528926 369.297455 
" clip-path="url(#p56f5576456)" style="fill: none; stroke: #1f77b4; stroke-width: 1.5; stroke-linecap: square"/>
   </g>
   <g id="patch_3">
    <path d="M 108 384.48 
L 108 51.84 
" style="fill: none; stroke: #000000; stroke-width: 0.8; stroke-linejoin: miter; stroke-linecap: square"/>
   </g>
   <g id="patch_4">
    <path d="M 412.363636 384.48 
L 412.363636 51.84 
" style="fill: none; stroke: #000000; stroke-width: 0.8; stroke-linejoin: miter; stroke-linecap: square"/>
   </g>
   <g id="patch_5">
    <path d="M 108 384.48 
L 412.363636 384.48 
" style="fill: none; stroke: #000000; stroke-width: 0.8; stroke-linejoin: miter; stroke-linecap: square"/>
   </g>
   <g id="patch_6">
    <path d="M 108 51.84 
L 412.363636 51.84 
" style="fill: none; stroke: #000000; stroke-width: 0.8; stroke-linejoin: miter; stroke-linecap: square"/>
   </g>
   <g id="text_14">
    <!-- loss over training cycle -->
    <g transform="translate(190.739318 45.84) scale(0.12 -0.12)">
     <defs>
      <path id="DejaVuSans-6c" d="M 603 4863 
L 1178 4863 
L 1178 0 
L 603 0 
L 603 4863 
z
" transform="scale(0.015625)"/>
      <path id="DejaVuSans-6f" d="M 1959 3097 
Q 1497 3097 1228 2736 
Q 959 2375 959 1747 
Q 959 1119 1226 758 
Q 1494 397 1959 397 
Q 2419 397 2687 759 
Q 2956 1122 2956 1747 
Q 2956 2369 2687 2733 
Q 2419 3097 1959 3097 
z
M 1959 3584 
Q 2709 3584 3137 3096 
Q 3566 2609 3566 1747 
Q 3566 888 3137 398 
Q 2709 -91 1959 -91 
Q 1206 -91 779 398 
Q 353 888 353 1747 
Q 353 2609 779 3096 
Q 1206 3584 1959 3584 
z
" transform="scale(0.015625)"/>
      <path id="DejaVuSans-73" d="M 2834 3397 
L 2834 2853 
Q 2591 2978 2328 3040 
Q 2066 3103 1784 3103 
Q 1356 3103 1142 2972 
Q 928 2841 928 2578 
Q 928 2378 1081 2264 
Q 1234 2150 1697 2047 
L 1894 2003 
Q 2506 1872 2764 1633 
Q 3022 1394 3022 966 
Q 3022 478 2636 193 
Q 2250 -91 1575 -91 
Q 1294 -91 989 -36 
Q 684 19 347 128 
L 347 722 
Q 666 556 975 473 
Q 1284 391 1588 391 
Q 1994 391 2212 530 
Q 2431 669 2431 922 
Q 2431 1156 2273 1281 
Q 2116 1406 1581 1522 
L 1381 1569 
Q 847 1681 609 1914 
Q 372 2147 372 2553 
Q 372 3047 722 3315 
Q 1072 3584 1716 3584 
Q 2034 3584 2315 3537 
Q 2597 3491 2834 3397 
z
" transform="scale(0.015625)"/>
      <path id="DejaVuSans-20" transform="scale(0.015625)"/>
      <path id="DejaVuSans-76" d="M 191 3500 
L 800 3500 
L 1894 563 
L 2988 3500 
L 3597 3500 
L 2284 0 
L 1503 0 
L 191 3500 
z
" transform="scale(0.015625)"/>
      <path id="DejaVuSans-65" d="M 3597 1894 
L 3597 1613 
L 953 1613 
Q 991 1019 1311 708 
Q 1631 397 2203 397 
Q 2534 397 2845 478 
Q 3156 559 3463 722 
L 3463 178 
Q 3153 47 2828 -22 
Q 2503 -91 2169 -91 
Q 1331 -91 842 396 
Q 353 884 353 1716 
Q 353 2575 817 3079 
Q 1281 3584 2069 3584 
Q 2775 3584 3186 3129 
Q 3597 2675 3597 1894 
z
M 3022 2063 
Q 3016 2534 2758 2815 
Q 2500 3097 2075 3097 
Q 1594 3097 1305 2825 
Q 1016 2553 972 2059 
L 3022 2063 
z
" transform="scale(0.015625)"/>
      <path id="DejaVuSans-72" d="M 2631 2963 
Q 2534 3019 2420 3045 
Q 2306 3072 2169 3072 
Q 1681 3072 1420 2755 
Q 1159 2438 1159 1844 
L 1159 0 
L 581 0 
L 581 3500 
L 1159 3500 
L 1159 2956 
Q 1341 3275 1631 3429 
Q 1922 3584 2338 3584 
Q 2397 3584 2469 3576 
Q 2541 3569 2628 3553 
L 2631 2963 
z
" transform="scale(0.015625)"/>
      <path id="DejaVuSans-74" d="M 1172 4494 
L 1172 3500 
L 2356 3500 
L 2356 3053 
L 1172 3053 
L 1172 1153 
Q 1172 725 1289 603 
Q 1406 481 1766 481 
L 2356 481 
L 2356 0 
L 1766 0 
Q 1100 0 847 248 
Q 594 497 594 1153 
L 594 3053 
L 172 3053 
L 172 3500 
L 594 3500 
L 594 4494 
L 1172 4494 
z
" transform="scale(0.015625)"/>
      <path id="DejaVuSans-61" d="M 2194 1759 
Q 1497 1759 1228 1600 
Q 959 1441 959 1056 
Q 959 750 1161 570 
Q 1363 391 1709 391 
Q 2188 391 2477 730 
Q 2766 1069 2766 1631 
L 2766 1759 
L 2194 1759 
z
M 3341 1997 
L 3341 0 
L 2766 0 
L 2766 531 
Q 2569 213 2275 61 
Q 1981 -91 1556 -91 
Q 1019 -91 701 211 
Q 384 513 384 1019 
Q 384 1609 779 1909 
Q 1175 2209 1959 2209 
L 2766 2209 
L 2766 2266 
Q 2766 2663 2505 2880 
Q 2244 3097 1772 3097 
Q 1472 3097 1187 3025 
Q 903 2953 641 2809 
L 641 3341 
Q 956 3463 1253 3523 
Q 1550 3584 1831 3584 
Q 2591 3584 2966 3190 
Q 3341 2797 3341 1997 
z
" transform="scale(0.015625)"/>
      <path id="DejaVuSans-69" d="M 603 3500 
L 1178 3500 
L 1178 0 
L 603 0 
L 603 3500 
z
M 603 4863 
L 1178 4863 
L 1178 4134 
L 603 4134 
L 603 4863 
z
" transform="scale(0.015625)"/>
      <path id="DejaVuSans-6e" d="M 3513 2113 
L 3513 0 
L 2938 0 
L 2938 2094 
Q 2938 2591 2744 2837 
Q 2550 3084 2163 3084 
Q 1697 3084 1428 2787 
Q 1159 2491 1159 1978 
L 1159 0 
L 581 0 
L 581 3500 
L 1159 3500 
L 1159 2956 
Q 1366 3272 1645 3428 
Q 1925 3584 2291 3584 
Q 2894 3584 3203 3211 
Q 3513 2838 3513 2113 
z
" transform="scale(0.015625)"/>
      <path id="DejaVuSans-67" d="M 2906 1791 
Q 2906 2416 2648 2759 
Q 2391 3103 1925 3103 
Q 1463 3103 1205 2759 
Q 947 2416 947 1791 
Q 947 1169 1205 825 
Q 1463 481 1925 481 
Q 2391 481 2648 825 
Q 2906 1169 2906 1791 
z
M 3481 434 
Q 3481 -459 3084 -895 
Q 2688 -1331 1869 -1331 
Q 1566 -1331 1297 -1286 
Q 1028 -1241 775 -1147 
L 775 -588 
Q 1028 -725 1275 -790 
Q 1522 -856 1778 -856 
Q 2344 -856 2625 -561 
Q 2906 -266 2906 331 
L 2906 616 
Q 2728 306 2450 153 
Q 2172 0 1784 0 
Q 1141 0 747 490 
Q 353 981 353 1791 
Q 353 2603 747 3093 
Q 1141 3584 1784 3584 
Q 2172 3584 2450 3431 
Q 2728 3278 2906 2969 
L 2906 3500 
L 3481 3500 
L 3481 434 
z
" transform="scale(0.015625)"/>
      <path id="DejaVuSans-63" d="M 3122 3366 
L 3122 2828 
Q 2878 2963 2633 3030 
Q 2388 3097 2138 3097 
Q 1578 3097 1268 2742 
Q 959 2388 959 1747 
Q 959 1106 1268 751 
Q 1578 397 2138 397 
Q 2388 397 2633 464 
Q 2878 531 3122 666 
L 3122 134 
Q 2881 22 2623 -34 
Q 2366 -91 2075 -91 
Q 1284 -91 818 406 
Q 353 903 353 1747 
Q 353 2603 823 3093 
Q 1294 3584 2113 3584 
Q 2378 3584 2631 3529 
Q 2884 3475 3122 3366 
z
" transform="scale(0.015625)"/>
      <path id="DejaVuSans-79" d="M 2059 -325 
Q 1816 -950 1584 -1140 
Q 1353 -1331 966 -1331 
L 506 -1331 
L 506 -850 
L 844 -850 
Q 1081 -850 1212 -737 
Q 1344 -625 1503 -206 
L 1606 56 
L 191 3500 
L 800 3500 
L 1894 763 
L 2988 3500 
L 3597 3500 
L 2059 -325 
z
" transform="scale(0.015625)"/>
     </defs>
     <use xlink:href="#DejaVuSans-6c"/>
     <use xlink:href="#DejaVuSans-6f" x="27.783203"/>
     <use xlink:href="#DejaVuSans-73" x="88.964844"/>
     <use xlink:href="#DejaVuSans-73" x="141.064453"/>
     <use xlink:href="#DejaVuSans-20" x="193.164062"/>
     <use xlink:href="#DejaVuSans-6f" x="224.951172"/>
     <use xlink:href="#DejaVuSans-76" x="286.132812"/>
     <use xlink:href="#DejaVuSans-65" x="345.3125"/>
     <use xlink:href="#DejaVuSans-72" x="406.835938"/>
     <use xlink:href="#DejaVuSans-20" x="447.949219"/>
     <use xlink:href="#DejaVuSans-74" x="479.736328"/>
     <use xlink:href="#DejaVuSans-72" x="518.945312"/>
     <use xlink:href="#DejaVuSans-61" x="560.058594"/>
     <use xlink:href="#DejaVuSans-69" x="621.337891"/>
     <use xlink:href="#DejaVuSans-6e" x="649.121094"/>
     <use xlink:href="#DejaVuSans-69" x="712.5"/>
     <use xlink:href="#DejaVuSans-6e" x="740.283203"/>
     <use xlink:href="#DejaVuSans-67" x="803.662109"/>
     <use xlink:href="#DejaVuSans-20" x="867.138672"/>
     <use xlink:href="#DejaVuSans-63" x="898.925781"/>
     <use xlink:href="#DejaVuSans-79" x="953.90625"/>
     <use xlink:href="#DejaVuSans-63" x="1013.085938"/>
     <use xlink:href="#DejaVuSans-6c" x="1068.066406"/>
     <use xlink:href="#DejaVuSans-65" x="1095.849609"/>
    </g>
   </g>
  </g>
  <g id="axes_2">
   <g id="patch_7">
    <path d="M 473.236364 384.48 
L 777.6 384.48 
L 777.6 51.84 
L 473.236364 51.84 
z
" style="fill: #ffffff"/>
   </g>
   <g id="matplotlib.axis_3">
    <g id="xtick_9">
     <g id="line2d_15">
      <g>
       <use xlink:href="#m01f497a67c" x="483.331963" y="384.48" style="stroke: #000000; stroke-width: 0.8"/>
      </g>
     </g>
     <g id="text_15">
      <!-- 0 -->
      <g transform="translate(480.150713 399.078438) scale(0.1 -0.1)">
       <use xlink:href="#DejaVuSans-30"/>
      </g>
     </g>
    </g>
    <g id="xtick_10">
     <g id="line2d_16">
      <g>
       <use xlink:href="#m01f497a67c" x="520.723073" y="384.48" style="stroke: #000000; stroke-width: 0.8"/>
      </g>
     </g>
     <g id="text_16">
      <!-- 10 -->
      <g transform="translate(514.360573 399.078438) scale(0.1 -0.1)">
       <use xlink:href="#DejaVuSans-31"/>
       <use xlink:href="#DejaVuSans-30" x="63.623047"/>
      </g>
     </g>
    </g>
    <g id="xtick_11">
     <g id="line2d_17">
      <g>
       <use xlink:href="#m01f497a67c" x="558.114184" y="384.48" style="stroke: #000000; stroke-width: 0.8"/>
      </g>
     </g>
     <g id="text_17">
      <!-- 20 -->
      <g transform="translate(551.751684 399.078438) scale(0.1 -0.1)">
       <use xlink:href="#DejaVuSans-32"/>
       <use xlink:href="#DejaVuSans-30" x="63.623047"/>
      </g>
     </g>
    </g>
    <g id="xtick_12">
     <g id="line2d_18">
      <g>
       <use xlink:href="#m01f497a67c" x="595.505294" y="384.48" style="stroke: #000000; stroke-width: 0.8"/>
      </g>
     </g>
     <g id="text_18">
      <!-- 30 -->
      <g transform="translate(589.142794 399.078438) scale(0.1 -0.1)">
       <use xlink:href="#DejaVuSans-33"/>
       <use xlink:href="#DejaVuSans-30" x="63.623047"/>
      </g>
     </g>
    </g>
    <g id="xtick_13">
     <g id="line2d_19">
      <g>
       <use xlink:href="#m01f497a67c" x="632.896404" y="384.48" style="stroke: #000000; stroke-width: 0.8"/>
      </g>
     </g>
     <g id="text_19">
      <!-- 40 -->
      <g transform="translate(626.533904 399.078438) scale(0.1 -0.1)">
       <use xlink:href="#DejaVuSans-34"/>
       <use xlink:href="#DejaVuSans-30" x="63.623047"/>
      </g>
     </g>
    </g>
    <g id="xtick_14">
     <g id="line2d_20">
      <g>
       <use xlink:href="#m01f497a67c" x="670.287514" y="384.48" style="stroke: #000000; stroke-width: 0.8"/>
      </g>
     </g>
     <g id="text_20">
      <!-- 50 -->
      <g transform="translate(663.925014 399.078438) scale(0.1 -0.1)">
       <use xlink:href="#DejaVuSans-35"/>
       <use xlink:href="#DejaVuSans-30" x="63.623047"/>
      </g>
     </g>
    </g>
    <g id="xtick_15">
     <g id="line2d_21">
      <g>
       <use xlink:href="#m01f497a67c" x="707.678624" y="384.48" style="stroke: #000000; stroke-width: 0.8"/>
      </g>
     </g>
     <g id="text_21">
      <!-- 60 -->
      <g transform="translate(701.316124 399.078438) scale(0.1 -0.1)">
       <use xlink:href="#DejaVuSans-36"/>
       <use xlink:href="#DejaVuSans-30" x="63.623047"/>
      </g>
     </g>
    </g>
    <g id="xtick_16">
     <g id="line2d_22">
      <g>
       <use xlink:href="#m01f497a67c" x="745.069734" y="384.48" style="stroke: #000000; stroke-width: 0.8"/>
      </g>
     </g>
     <g id="text_22">
      <!-- 70 -->
      <g transform="translate(738.707234 399.078438) scale(0.1 -0.1)">
       <use xlink:href="#DejaVuSans-37"/>
       <use xlink:href="#DejaVuSans-30" x="63.623047"/>
      </g>
     </g>
    </g>
   </g>
   <g id="matplotlib.axis_4">
    <g id="ytick_6">
     <g id="line2d_23">
      <g>
       <use xlink:href="#me39d03a051" x="473.236364" y="346.324832" style="stroke: #000000; stroke-width: 0.8"/>
      </g>
     </g>
     <g id="text_23">
      <!-- 0.3 -->
      <g transform="translate(450.333239 350.124051) scale(0.1 -0.1)">
       <defs>
        <path id="DejaVuSans-2e" d="M 684 794 
L 1344 794 
L 1344 0 
L 684 0 
L 684 794 
z
" transform="scale(0.015625)"/>
       </defs>
       <use xlink:href="#DejaVuSans-30"/>
       <use xlink:href="#DejaVuSans-2e" x="63.623047"/>
       <use xlink:href="#DejaVuSans-33" x="95.410156"/>
      </g>
     </g>
    </g>
    <g id="ytick_7">
     <g id="line2d_24">
      <g>
       <use xlink:href="#me39d03a051" x="473.236364" y="283.510872" style="stroke: #000000; stroke-width: 0.8"/>
      </g>
     </g>
     <g id="text_24">
      <!-- 0.4 -->
      <g transform="translate(450.333239 287.310091) scale(0.1 -0.1)">
       <use xlink:href="#DejaVuSans-30"/>
       <use xlink:href="#DejaVuSans-2e" x="63.623047"/>
       <use xlink:href="#DejaVuSans-34" x="95.410156"/>
      </g>
     </g>
    </g>
    <g id="ytick_8">
     <g id="line2d_25">
      <g>
       <use xlink:href="#me39d03a051" x="473.236364" y="220.696913" style="stroke: #000000; stroke-width: 0.8"/>
      </g>
     </g>
     <g id="text_25">
      <!-- 0.5 -->
      <g transform="translate(450.333239 224.496132) scale(0.1 -0.1)">
       <use xlink:href="#DejaVuSans-30"/>
       <use xlink:href="#DejaVuSans-2e" x="63.623047"/>
       <use xlink:href="#DejaVuSans-35" x="95.410156"/>
      </g>
     </g>
    </g>
    <g id="ytick_9">
     <g id="line2d_26">
      <g>
       <use xlink:href="#me39d03a051" x="473.236364" y="157.882953" style="stroke: #000000; stroke-width: 0.8"/>
      </g>
     </g>
     <g id="text_26">
      <!-- 0.6 -->
      <g transform="translate(450.333239 161.682172) scale(0.1 -0.1)">
       <use xlink:href="#DejaVuSans-30"/>
       <use xlink:href="#DejaVuSans-2e" x="63.623047"/>
       <use xlink:href="#DejaVuSans-36" x="95.410156"/>
      </g>
     </g>
    </g>
    <g id="ytick_10">
     <g id="line2d_27">
      <g>
       <use xlink:href="#me39d03a051" x="473.236364" y="95.068993" style="stroke: #000000; stroke-width: 0.8"/>
      </g>
     </g>
     <g id="text_27">
      <!-- 0.7 -->
      <g transform="translate(450.333239 98.868212) scale(0.1 -0.1)">
       <use xlink:href="#DejaVuSans-30"/>
       <use xlink:href="#DejaVuSans-2e" x="63.623047"/>
       <use xlink:href="#DejaVuSans-37" x="95.410156"/>
      </g>
     </g>
    </g>
   </g>
   <g id="line2d_28">
    <path d="M 487.071074 296.090022 
L 490.810185 253.848725 
L 494.549296 235.522534 
L 498.288407 212.15814 
L 502.027518 210.64777 
L 505.766629 202.757857 
L 509.50574 196.907216 
L 513.244851 193.564772 
L 516.983962 179.884197 
L 520.723073 177.032487 
L 524.462184 171.879779 
L 528.201296 166.143643 
L 531.940407 169.371583 
L 535.679518 172.692216 
L 539.418629 167.937549 
L 543.15774 162.632168 
L 546.896851 155.516524 
L 550.635962 153.101022 
L 554.375073 151.421621 
L 558.114184 148.760752 
L 561.853295 146.966846 
L 565.592406 148.23185 
L 569.331517 141.078038 
L 573.070628 147.135877 
L 576.809739 142.664745 
L 580.54885 138.493505 
L 584.287961 139.682172 
L 588.027072 135.189229 
L 591.766183 140.947175 
L 595.505294 133.755195 
L 599.244405 133.395323 
L 602.983516 128.847854 
L 606.722627 130.565424 
L 610.461738 130.24372 
L 614.200849 129.69846 
L 617.93996 128.924191 
L 621.679071 125.450884 
L 625.418182 121.317813 
L 629.157293 116.863038 
L 632.896404 117.560971 
L 636.635515 116.955732 
L 640.374626 118.051705 
L 644.113737 114.578398 
L 647.852848 112.768135 
L 651.591959 109.785562 
L 655.33107 107.860794 
L 659.070181 110.238128 
L 662.809292 111.257765 
L 666.548403 109.218492 
L 670.287514 102.179185 
L 674.026625 109.709226 
L 677.765736 108.31336 
L 681.504847 104.878222 
L 685.243958 106.350424 
L 688.983069 96.137703 
L 692.72218 105.047253 
L 696.461291 96.78111 
L 700.200402 101.51942 
L 703.939513 97.969777 
L 707.678624 98.575016 
L 711.417735 96.612079 
L 715.156846 92.571702 
L 718.895957 91.175836 
L 722.635068 90.685102 
L 726.374179 86.061297 
L 730.11329 92.533534 
L 733.852401 87.664362 
L 737.591512 91.950106 
L 741.330623 79.152852 
L 745.069734 81.115788 
L 748.808845 79.681754 
L 752.547956 74.076481 
L 756.287067 80.586886 
L 760.026178 73.471242 
L 763.765289 75.963081 
" clip-path="url(#pd2f35d27ee)" style="fill: none; stroke: #1f77b4; stroke-width: 1.5; stroke-linecap: square"/>
   </g>
   <g id="line2d_29">
    <path d="M 487.071074 369.36 
L 490.810185 222.21906 
L 494.549296 250.632483 
L 498.288407 290.208322 
L 502.027518 287.164027 
L 505.766629 183.657987 
L 509.50574 203.953289 
L 513.244851 273.972081 
L 516.983962 189.746577 
L 520.723073 157.274094 
L 524.462184 165.392215 
L 528.201296 159.303624 
L 531.940407 155.244564 
L 535.679518 148.141208 
L 539.418629 154.229799 
L 543.15774 142.052617 
L 546.896851 144.082148 
L 550.635962 137.993557 
L 554.375073 128.860671 
L 558.114184 152.200268 
L 561.853295 131.904966 
L 565.592406 161.333154 
L 569.331517 144.082148 
L 573.070628 144.082148 
L 576.809739 139.008322 
L 580.54885 131.904966 
L 584.287961 142.052617 
L 588.027072 142.052617 
L 591.766183 122.772081 
L 595.505294 128.860671 
L 599.244405 130.890201 
L 602.983516 117.698255 
L 606.722627 119.727785 
L 610.461738 128.860671 
L 614.200849 147.126443 
L 617.93996 124.801611 
L 621.679071 130.890201 
L 625.418182 132.919732 
L 629.157293 123.786846 
L 632.896404 118.71302 
L 636.635515 117.698255 
L 640.374626 126.831141 
L 644.113737 120.74255 
L 647.852848 113.639195 
L 651.591959 115.668725 
L 655.33107 112.62443 
L 659.070181 108.565369 
L 662.809292 102.476779 
L 666.548403 112.62443 
L 670.287514 101.462013 
L 674.026625 97.402953 
L 677.765736 106.535839 
L 681.504847 100.447248 
L 685.243958 94.358658 
L 688.983069 89.284832 
L 692.72218 94.358658 
L 696.461291 86.240537 
L 700.200402 76.092886 
L 703.939513 101.462013 
L 707.678624 90.299597 
L 711.417735 82.181477 
L 715.156846 78.122416 
L 718.895957 94.358658 
L 722.635068 91.314362 
L 726.374179 78.122416 
L 730.11329 109.580134 
L 733.852401 77.107651 
L 737.591512 80.151946 
L 741.330623 75.078121 
L 745.069734 84.211007 
L 748.808845 78.122416 
L 752.547956 68.98953 
L 756.287067 66.96 
L 760.026178 72.033826 
L 763.765289 77.107651 
" clip-path="url(#pd2f35d27ee)" style="fill: none; stroke-dasharray: 5.55,2.4; stroke-dashoffset: 0; stroke: #ff7f0e; stroke-width: 1.5"/>
   </g>
   <g id="patch_8">
    <path d="M 473.236364 384.48 
L 473.236364 51.84 
" style="fill: none; stroke: #000000; stroke-width: 0.8; stroke-linejoin: miter; stroke-linecap: square"/>
   </g>
   <g id="patch_9">
    <path d="M 777.6 384.48 
L 777.6 51.84 
" style="fill: none; stroke: #000000; stroke-width: 0.8; stroke-linejoin: miter; stroke-linecap: square"/>
   </g>
   <g id="patch_10">
    <path d="M 473.236364 384.48 
L 777.6 384.48 
" style="fill: none; stroke: #000000; stroke-width: 0.8; stroke-linejoin: miter; stroke-linecap: square"/>
   </g>
   <g id="patch_11">
    <path d="M 473.236364 51.84 
L 777.6 51.84 
" style="fill: none; stroke: #000000; stroke-width: 0.8; stroke-linejoin: miter; stroke-linecap: square"/>
   </g>
   <g id="text_28">
    <!-- accuracy tracking -->
    <g transform="translate(571.892557 45.84) scale(0.12 -0.12)">
     <defs>
      <path id="DejaVuSans-75" d="M 544 1381 
L 544 3500 
L 1119 3500 
L 1119 1403 
Q 1119 906 1312 657 
Q 1506 409 1894 409 
Q 2359 409 2629 706 
Q 2900 1003 2900 1516 
L 2900 3500 
L 3475 3500 
L 3475 0 
L 2900 0 
L 2900 538 
Q 2691 219 2414 64 
Q 2138 -91 1772 -91 
Q 1169 -91 856 284 
Q 544 659 544 1381 
z
M 1991 3584 
L 1991 3584 
z
" transform="scale(0.015625)"/>
      <path id="DejaVuSans-6b" d="M 581 4863 
L 1159 4863 
L 1159 1991 
L 2875 3500 
L 3609 3500 
L 1753 1863 
L 3688 0 
L 2938 0 
L 1159 1709 
L 1159 0 
L 581 0 
L 581 4863 
z
" transform="scale(0.015625)"/>
     </defs>
     <use xlink:href="#DejaVuSans-61"/>
     <use xlink:href="#DejaVuSans-63" x="61.279297"/>
     <use xlink:href="#DejaVuSans-63" x="116.259766"/>
     <use xlink:href="#DejaVuSans-75" x="171.240234"/>
     <use xlink:href="#DejaVuSans-72" x="234.619141"/>
     <use xlink:href="#DejaVuSans-61" x="275.732422"/>
     <use xlink:href="#DejaVuSans-63" x="337.011719"/>
     <use xlink:href="#DejaVuSans-79" x="391.992188"/>
     <use xlink:href="#DejaVuSans-20" x="451.171875"/>
     <use xlink:href="#DejaVuSans-74" x="482.958984"/>
     <use xlink:href="#DejaVuSans-72" x="522.167969"/>
     <use xlink:href="#DejaVuSans-61" x="563.28125"/>
     <use xlink:href="#DejaVuSans-63" x="624.560547"/>
     <use xlink:href="#DejaVuSans-6b" x="679.541016"/>
     <use xlink:href="#DejaVuSans-69" x="737.451172"/>
     <use xlink:href="#DejaVuSans-6e" x="765.234375"/>
     <use xlink:href="#DejaVuSans-67" x="828.613281"/>
    </g>
   </g>
   <g id="legend_1">
    <g id="patch_12">
     <path d="M 480.236364 89.19625 
L 583.808239 89.19625 
Q 585.808239 89.19625 585.808239 87.19625 
L 585.808239 58.84 
Q 585.808239 56.84 583.808239 56.84 
L 480.236364 56.84 
Q 478.236364 56.84 478.236364 58.84 
L 478.236364 87.19625 
Q 478.236364 89.19625 480.236364 89.19625 
z
" style="fill: #ffffff; opacity: 0.8; stroke: #cccccc; stroke-linejoin: miter"/>
    </g>
    <g id="line2d_30">
     <path d="M 482.236364 64.938437 
L 492.236364 64.938437 
L 502.236364 64.938437 
" style="fill: none; stroke: #1f77b4; stroke-width: 1.5; stroke-linecap: square"/>
    </g>
    <g id="text_29">
     <!-- train accuracy -->
     <g transform="translate(510.236364 68.438437) scale(0.1 -0.1)">
      <use xlink:href="#DejaVuSans-74"/>
      <use xlink:href="#DejaVuSans-72" x="39.208984"/>
      <use xlink:href="#DejaVuSans-61" x="80.322266"/>
      <use xlink:href="#DejaVuSans-69" x="141.601562"/>
      <use xlink:href="#DejaVuSans-6e" x="169.384766"/>
      <use xlink:href="#DejaVuSans-20" x="232.763672"/>
      <use xlink:href="#DejaVuSans-61" x="264.550781"/>
      <use xlink:href="#DejaVuSans-63" x="325.830078"/>
      <use xlink:href="#DejaVuSans-63" x="380.810547"/>
      <use xlink:href="#DejaVuSans-75" x="435.791016"/>
      <use xlink:href="#DejaVuSans-72" x="499.169922"/>
      <use xlink:href="#DejaVuSans-61" x="540.283203"/>
      <use xlink:href="#DejaVuSans-63" x="601.5625"/>
      <use xlink:href="#DejaVuSans-79" x="656.542969"/>
     </g>
    </g>
    <g id="line2d_31">
     <path d="M 482.236364 79.616562 
L 492.236364 79.616562 
L 502.236364 79.616562 
" style="fill: none; stroke-dasharray: 5.55,2.4; stroke-dashoffset: 0; stroke: #ff7f0e; stroke-width: 1.5"/>
    </g>
    <g id="text_30">
     <!-- test accuracy -->
     <g transform="translate(510.236364 83.116562) scale(0.1 -0.1)">
      <use xlink:href="#DejaVuSans-74"/>
      <use xlink:href="#DejaVuSans-65" x="39.208984"/>
      <use xlink:href="#DejaVuSans-73" x="100.732422"/>
      <use xlink:href="#DejaVuSans-74" x="152.832031"/>
      <use xlink:href="#DejaVuSans-20" x="192.041016"/>
      <use xlink:href="#DejaVuSans-61" x="223.828125"/>
      <use xlink:href="#DejaVuSans-63" x="285.107422"/>
      <use xlink:href="#DejaVuSans-63" x="340.087891"/>
      <use xlink:href="#DejaVuSans-75" x="395.068359"/>
      <use xlink:href="#DejaVuSans-72" x="458.447266"/>
      <use xlink:href="#DejaVuSans-61" x="499.560547"/>
      <use xlink:href="#DejaVuSans-63" x="560.839844"/>
      <use xlink:href="#DejaVuSans-79" x="615.820312"/>
     </g>
    </g>
   </g>
  </g>
  <g id="text_31">
   <!-- training of 2D_CNN_3L_multiclass_16_nodes model 3a1 -->
   <g transform="translate(265.622813 17.758125) scale(0.12 -0.12)">
    <defs>
     <path id="DejaVuSans-66" d="M 2375 4863 
L 2375 4384 
L 1825 4384 
Q 1516 4384 1395 4259 
Q 1275 4134 1275 3809 
L 1275 3500 
L 2222 3500 
L 2222 3053 
L 1275 3053 
L 1275 0 
L 697 0 
L 697 3053 
L 147 3053 
L 147 3500 
L 697 3500 
L 697 3744 
Q 697 4328 969 4595 
Q 1241 4863 1831 4863 
L 2375 4863 
z
" transform="scale(0.015625)"/>
     <path id="DejaVuSans-44" d="M 1259 4147 
L 1259 519 
L 2022 519 
Q 2988 519 3436 956 
Q 3884 1394 3884 2338 
Q 3884 3275 3436 3711 
Q 2988 4147 2022 4147 
L 1259 4147 
z
M 628 4666 
L 1925 4666 
Q 3281 4666 3915 4102 
Q 4550 3538 4550 2338 
Q 4550 1131 3912 565 
Q 3275 0 1925 0 
L 628 0 
L 628 4666 
z
" transform="scale(0.015625)"/>
     <path id="DejaVuSans-5f" d="M 3263 -1063 
L 3263 -1509 
L -63 -1509 
L -63 -1063 
L 3263 -1063 
z
" transform="scale(0.015625)"/>
     <path id="DejaVuSans-43" d="M 4122 4306 
L 4122 3641 
Q 3803 3938 3442 4084 
Q 3081 4231 2675 4231 
Q 1875 4231 1450 3742 
Q 1025 3253 1025 2328 
Q 1025 1406 1450 917 
Q 1875 428 2675 428 
Q 3081 428 3442 575 
Q 3803 722 4122 1019 
L 4122 359 
Q 3791 134 3420 21 
Q 3050 -91 2638 -91 
Q 1578 -91 968 557 
Q 359 1206 359 2328 
Q 359 3453 968 4101 
Q 1578 4750 2638 4750 
Q 3056 4750 3426 4639 
Q 3797 4528 4122 4306 
z
" transform="scale(0.015625)"/>
     <path id="DejaVuSans-4e" d="M 628 4666 
L 1478 4666 
L 3547 763 
L 3547 4666 
L 4159 4666 
L 4159 0 
L 3309 0 
L 1241 3903 
L 1241 0 
L 628 0 
L 628 4666 
z
" transform="scale(0.015625)"/>
     <path id="DejaVuSans-4c" d="M 628 4666 
L 1259 4666 
L 1259 531 
L 3531 531 
L 3531 0 
L 628 0 
L 628 4666 
z
" transform="scale(0.015625)"/>
     <path id="DejaVuSans-6d" d="M 3328 2828 
Q 3544 3216 3844 3400 
Q 4144 3584 4550 3584 
Q 5097 3584 5394 3201 
Q 5691 2819 5691 2113 
L 5691 0 
L 5113 0 
L 5113 2094 
Q 5113 2597 4934 2840 
Q 4756 3084 4391 3084 
Q 3944 3084 3684 2787 
Q 3425 2491 3425 1978 
L 3425 0 
L 2847 0 
L 2847 2094 
Q 2847 2600 2669 2842 
Q 2491 3084 2119 3084 
Q 1678 3084 1418 2786 
Q 1159 2488 1159 1978 
L 1159 0 
L 581 0 
L 581 3500 
L 1159 3500 
L 1159 2956 
Q 1356 3278 1631 3431 
Q 1906 3584 2284 3584 
Q 2666 3584 2933 3390 
Q 3200 3197 3328 2828 
z
" transform="scale(0.015625)"/>
     <path id="DejaVuSans-64" d="M 2906 2969 
L 2906 4863 
L 3481 4863 
L 3481 0 
L 2906 0 
L 2906 525 
Q 2725 213 2448 61 
Q 2172 -91 1784 -91 
Q 1150 -91 751 415 
Q 353 922 353 1747 
Q 353 2572 751 3078 
Q 1150 3584 1784 3584 
Q 2172 3584 2448 3432 
Q 2725 3281 2906 2969 
z
M 947 1747 
Q 947 1113 1208 752 
Q 1469 391 1925 391 
Q 2381 391 2643 752 
Q 2906 1113 2906 1747 
Q 2906 2381 2643 2742 
Q 2381 3103 1925 3103 
Q 1469 3103 1208 2742 
Q 947 2381 947 1747 
z
" transform="scale(0.015625)"/>
    </defs>
    <use xlink:href="#DejaVuSans-74"/>
    <use xlink:href="#DejaVuSans-72" x="39.208984"/>
    <use xlink:href="#DejaVuSans-61" x="80.322266"/>
    <use xlink:href="#DejaVuSans-69" x="141.601562"/>
    <use xlink:href="#DejaVuSans-6e" x="169.384766"/>
    <use xlink:href="#DejaVuSans-69" x="232.763672"/>
    <use xlink:href="#DejaVuSans-6e" x="260.546875"/>
    <use xlink:href="#DejaVuSans-67" x="323.925781"/>
    <use xlink:href="#DejaVuSans-20" x="387.402344"/>
    <use xlink:href="#DejaVuSans-6f" x="419.189453"/>
    <use xlink:href="#DejaVuSans-66" x="480.371094"/>
    <use xlink:href="#DejaVuSans-20" x="515.576172"/>
    <use xlink:href="#DejaVuSans-32" x="547.363281"/>
    <use xlink:href="#DejaVuSans-44" x="610.986328"/>
    <use xlink:href="#DejaVuSans-5f" x="687.988281"/>
    <use xlink:href="#DejaVuSans-43" x="737.988281"/>
    <use xlink:href="#DejaVuSans-4e" x="807.8125"/>
    <use xlink:href="#DejaVuSans-4e" x="882.617188"/>
    <use xlink:href="#DejaVuSans-5f" x="957.421875"/>
    <use xlink:href="#DejaVuSans-33" x="1007.421875"/>
    <use xlink:href="#DejaVuSans-4c" x="1071.044922"/>
    <use xlink:href="#DejaVuSans-5f" x="1126.757812"/>
    <use xlink:href="#DejaVuSans-6d" x="1176.757812"/>
    <use xlink:href="#DejaVuSans-75" x="1274.169922"/>
    <use xlink:href="#DejaVuSans-6c" x="1337.548828"/>
    <use xlink:href="#DejaVuSans-74" x="1365.332031"/>
    <use xlink:href="#DejaVuSans-69" x="1404.541016"/>
    <use xlink:href="#DejaVuSans-63" x="1432.324219"/>
    <use xlink:href="#DejaVuSans-6c" x="1487.304688"/>
    <use xlink:href="#DejaVuSans-61" x="1515.087891"/>
    <use xlink:href="#DejaVuSans-73" x="1576.367188"/>
    <use xlink:href="#DejaVuSans-73" x="1628.466797"/>
    <use xlink:href="#DejaVuSans-5f" x="1680.566406"/>
    <use xlink:href="#DejaVuSans-31" x="1730.566406"/>
    <use xlink:href="#DejaVuSans-36" x="1794.189453"/>
    <use xlink:href="#DejaVuSans-5f" x="1857.8125"/>
    <use xlink:href="#DejaVuSans-6e" x="1907.8125"/>
    <use xlink:href="#DejaVuSans-6f" x="1971.191406"/>
    <use xlink:href="#DejaVuSans-64" x="2032.373047"/>
    <use xlink:href="#DejaVuSans-65" x="2095.849609"/>
    <use xlink:href="#DejaVuSans-73" x="2157.373047"/>
    <use xlink:href="#DejaVuSans-20" x="2209.472656"/>
    <use xlink:href="#DejaVuSans-6d" x="2241.259766"/>
    <use xlink:href="#DejaVuSans-6f" x="2338.671875"/>
    <use xlink:href="#DejaVuSans-64" x="2399.853516"/>
    <use xlink:href="#DejaVuSans-65" x="2463.330078"/>
    <use xlink:href="#DejaVuSans-6c" x="2524.853516"/>
    <use xlink:href="#DejaVuSans-20" x="2552.636719"/>
    <use xlink:href="#DejaVuSans-33" x="2584.423828"/>
    <use xlink:href="#DejaVuSans-61" x="2648.046875"/>
    <use xlink:href="#DejaVuSans-31" x="2709.326172"/>
   </g>
  </g>
 </g>
 <defs>
  <clipPath id="p56f5576456">
   <rect x="108" y="51.84" width="304.363636" height="332.64"/>
  </clipPath>
  <clipPath id="pd2f35d27ee">
   <rect x="473.236364" y="51.84" width="304.363636" height="332.64"/>
  </clipPath>
 </defs>
</svg>
